# File created by Blade
# Date/Time:  Wed Jan 21 14:55:15 2015
# Frame Rate: 120.000 fps
#------------------------------------------------------
:FULLY-SPECIFIED
:DEGREES
258
root 23.235791 31.239346 -18.802547 -144.437037 76.439244 -169.634658
Spine 6.547657 -4.198014 1.973872
Head 19.791537 -5.806580 4.794660
LeftShoulder -8.191575 -23.802268 -1.170789
LeftArm -16.922784 0.603868 -70.755483
LeftForeArm 1.509036 0.000000 7.672894
LeftHand -1.806761 0.000000 3.733662
LeftHandThumb1 -26.253704 0.000000 33.147579
RightShoulder -6.905984 -12.901861 6.229405
RightArm 15.612933 -7.968753 67.730690
RightForeArm -16.849657 -0.000000 21.700818
RightHand 0.490601 -0.000000 -2.223312
RightHandThumb1 -24.326973 -0.000000 -32.862282
LeftUpLeg -7.824941 4.628970 5.234370
LeftLeg 50.845133 -0.000000 -0.000000
LeftFoot -8.778031 29.047212 -10.363951
LeftToeBase 13.485925 -0.000000 -0.000000
RightUpLeg -63.630793 6.051448 8.749732
RightLeg 52.331409 -0.000000 -0.000000
RightFoot -32.005155 -27.371892 12.310462
RightToeBase 21.217619 -0.000000 -0.000000
259
root 23.229073 31.045271 -18.779485 -141.906990 76.608891 -167.484717
Spine 6.457195 -4.370808 2.491911
Head 19.689833 -5.332201 4.577774
LeftShoulder -8.164211 -23.929815 -1.352780
LeftArm -17.068653 1.267573 -70.999429
LeftForeArm 0.696824 -0.000000 8.007463
LeftHand -1.877267 -0.000000 4.136977
LeftHandThumb1 -26.253704 0.000000 33.147579
RightShoulder -6.852218 -12.922814 6.314016
RightArm 15.642510 -8.090062 67.359243
RightForeArm -16.666860 -0.000000 21.810214
RightHand 0.304196 -0.000000 -2.419583
RightHandThumb1 -24.326973 -0.000000 -32.862282
LeftUpLeg -7.910759 4.493333 5.576956
LeftLeg 51.763662 -0.000000 -0.000000
LeftFoot -7.101212 28.628487 -9.461945
LeftToeBase 12.879137 -0.000000 -0.000000
RightUpLeg -64.637344 6.814247 8.887732
RightLeg 53.359458 -0.000000 -0.000000
RightFoot -32.596027 -27.584075 12.491210
RightToeBase 21.183264 -0.000000 -0.000000
260
root 23.218308 30.851173 -18.754239 -139.354859 76.837902 -165.291539
Spine 6.401860 -4.480918 2.901647
Head 19.598015 -4.805078 4.440067
LeftShoulder -8.205078 -23.988162 -1.479054
LeftArm -17.002882 1.437142 -71.101031
LeftForeArm 0.659615 -0.000000 8.160756
LeftHand -1.793873 -0.000000 4.249247
LeftHandThumb1 -26.253704 0.000000 33.147579
RightShoulder -6.790092 -13.045645 6.412398
RightArm 15.826267 -7.988445 67.086383
RightForeArm -16.816288 -0.000000 21.787710
RightHand 0.169820 -0.000000 -2.299993
RightHandThumb1 -24.326973 -0.000000 -32.862282
LeftUpLeg -7.960058 4.484753 5.871578
LeftLeg 52.567710 -0.000000 -0.000000
LeftFoot -5.287349 28.291994 -8.580966
LeftToeBase 12.364324 -0.000000 -0.000000
RightUpLeg -65.629285 7.695774 8.923572
RightLeg 54.367551 -0.000000 -0.000000
RightFoot -33.159380 -27.899906 12.640821
RightToeBase 21.325634 -0.000000 -0.000000
261
root 23.198400 30.659675 -18.731978 -136.573549 77.088745 -162.885970
Spine 6.355926 -4.480856 3.306324
Head 19.465896 -4.328657 4.325284
LeftShoulder -8.130047 -24.107801 -1.595672
LeftArm -16.976783 1.301409 -71.167035
LeftForeArm 0.824354 -0.000000 8.240671
LeftHand -1.730443 -0.000000 4.378308
LeftHandThumb1 -26.253704 0.000000 33.147579
RightShoulder -6.686756 -12.935407 6.469540
RightArm 15.731523 -7.910305 66.863047
RightForeArm -16.938802 0.000000 21.843171
RightHand 0.052635 -0.000000 -2.145965
RightHandThumb1 -24.326973 -0.000000 -32.862282
LeftUpLeg -8.038629 4.553051 6.136899
LeftLeg 53.306473 -0.000000 -0.000000
LeftFoot -3.279509 28.018968 -7.651343
LeftToeBase 12.411363 -0.000000 -0.000000
RightUpLeg -66.646746 8.629869 8.931940
RightLeg 55.355093 -0.000000 -0.000000
RightFoot -33.683653 -28.127067 12.975756
RightToeBase 21.149514 -0.000000 -0.000000
262
root 23.175480 30.470457 -18.703909 -133.829255 77.274511 -160.504676
Spine 6.339719 -4.526920 3.687292
Head 19.324485 -3.867598 4.231534
LeftShoulder -8.135072 -24.165254 -1.652386
LeftArm -16.816379 1.189101 -71.250847
LeftForeArm 0.795337 -0.000000 8.289300
LeftHand -1.600918 -0.000000 4.432451
LeftHandThumb1 -26.253704 0.000000 33.147579
RightShoulder -6.619410 -12.942447 6.554919
RightArm 15.873733 -7.690113 66.682117
RightForeArm -17.291099 -0.000000 21.716486
RightHand 0.041441 -0.000000 -1.851469
RightHandThumb1 -24.326973 -0.000000 -32.862282
LeftUpLeg -8.131636 4.616959 6.416536
LeftLeg 53.979471 -0.000000 -0.000000
LeftFoot -1.111857 27.799552 -6.722007
LeftToeBase 12.502672 -0.000000 -0.000000
RightUpLeg -67.636106 9.538789 8.934022
RightLeg 56.285376 -0.000000 -0.000000
RightFoot -34.199159 -28.441323 13.220469
RightToeBase 21.072843 -0.000000 -0.000000
263
root 23.150231 30.282732 -18.674382 -131.019971 77.428041 -158.079610
Spine 6.306280 -4.572342 4.066203
Head 19.170260 -3.410971 4.147521
LeftShoulder -8.129300 -24.175152 -1.730766
LeftArm -16.631614 1.004908 -71.279422
LeftForeArm 1.119202 -0.000000 8.404243
LeftHand -1.570597 -0.000000 4.365008
LeftHandThumb1 -26.253704 0.000000 33.147579
RightShoulder -6.515403 -12.996544 6.580092
RightArm 16.081581 -7.023937 66.749934
RightForeArm -18.224133 0.000000 21.432245
RightHand 0.169276 0.000000 -1.336135
RightHandThumb1 -24.326973 -0.000000 -32.862282
LeftUpLeg -8.282579 4.757404 6.706438
LeftLeg 54.605636 -0.000000 -0.000000
LeftFoot 1.270809 27.503422 -5.870455
LeftToeBase 12.551138 -0.000000 -0.000000
RightUpLeg -68.647866 10.441121 8.933360
RightLeg 57.210748 -0.000000 -0.000000
RightFoot -34.714906 -28.667554 13.520857
RightToeBase 20.972547 -0.000000 -0.000000
264
root 23.119083 30.099297 -18.645543 -128.187173 77.551912 -155.683273
Spine 6.210432 -4.578416 4.434568
Head 19.042468 -2.999890 4.090463
LeftShoulder -8.101146 -24.267449 -1.778187
LeftArm -16.542114 1.069345 -71.389025
LeftForeArm 1.104440 -0.000000 8.541470
LeftHand -1.583131 -0.000000 4.321757
LeftHandThumb1 -26.253704 0.000000 33.147579
RightShoulder -6.408731 -12.860591 6.617556
RightArm 15.947561 -6.832992 66.657887
RightForeArm -18.631600 -0.000000 21.508194
RightHand 0.086619 -0.000000 -1.070842
RightHandThumb1 -24.326973 -0.000000 -32.862282
LeftUpLeg -8.487717 4.859675 6.958670
LeftLeg 55.152306 -0.000000 -0.000000
LeftFoot 3.744623 27.150691 -5.006061
LeftToeBase 12.502481 -0.000000 -0.000000
RightUpLeg -69.710734 11.300671 8.924574
RightLeg 58.113662 -0.000000 -0.000000
RightFoot -35.119454 -28.928496 13.756047
RightToeBase 20.565026 -0.000000 -0.000000
265
root 23.083656 29.914300 -18.620086 -125.655576 77.682938 -153.530965
Spine 6.233586 -4.619769 4.691243
Head 18.820118 -2.617082 4.098540
LeftShoulder -8.070384 -24.347675 -1.769544
LeftArm -16.389807 0.905455 -71.483621
LeftForeArm 1.365896 -0.000000 8.614578
LeftHand -1.457551 -0.000000 4.434002
LeftHandThumb1 -26.253704 0.000000 33.147579
RightShoulder -6.307976 -12.799855 6.646671
RightArm 15.979029 -6.851708 66.515585
RightForeArm -18.904853 -0.000000 21.531123
RightHand -0.060270 -0.000000 -0.956115
RightHandThumb1 -24.326973 -0.000000 -32.862282
LeftUpLeg -8.649749 4.988325 7.144263
LeftLeg 55.620266 -0.000000 -0.000000
LeftFoot 6.345032 26.734373 -3.972907
LeftToeBase 12.270886 -0.000000 -0.000000
RightUpLeg -70.726896 12.076514 8.877958
RightLeg 59.014261 -0.000000 -0.000000
RightFoot -35.559336 -29.167000 13.948340
RightToeBase 20.326899 -0.000000 -0.000000
266
root 23.043631 29.731294 -18.594851 -123.201712 77.799594 -151.469469
Spine 6.236061 -4.646124 4.919422
Head 18.632242 -2.232653 4.107471
LeftShoulder -7.999575 -24.487106 -1.770029
LeftArm -16.294830 0.811181 -71.542011
LeftForeArm 1.404627 0.000000 8.647638
LeftHand -1.271663 -0.000000 4.283095
LeftHandThumb1 -26.253704 0.000000 33.147579
RightShoulder -6.198791 -12.847536 6.660109
RightArm 16.110574 -6.681795 66.456653
RightForeArm -19.293752 -0.000000 21.460571
RightHand 0.006541 -0.000000 -0.687695
RightHandThumb1 -24.326973 -0.000000 -32.862282
LeftUpLeg -8.851406 5.130695 7.301853
LeftLeg 56.042047 -0.000000 -0.000000
LeftFoot 8.928894 26.248804 -3.141478
LeftToeBase 11.265437 -0.000000 -0.000000
RightUpLeg -71.762745 12.813919 8.810888
RightLeg 59.919732 -0.000000 -0.000000
RightFoot -35.923826 -29.351668 14.100767
RightToeBase 19.830173 -0.000000 -0.000000
